<?xml version="1.0" encoding="utf-8"?>
<svg xmlns="http://www.w3.org/2000/svg" height="128" width="128" viewBox="0 0 128 128">
  <g>
    <path id="path1" transform="rotate(0,64,64) translate(15.8421251679734,10) scale(3.37500020116569,3.37500020116569)  " fill="#FFFEFC" d="M11.172533,4.5060472C9.7125149,4.4715815 8.2318487,4.9251032 6.991972,5.8980989 4.1649685,8.1240907 3.6749678,12.222075 5.9019709,15.052064 8.1279736,17.876053 12.224979,18.368052 15.051982,16.14406 17.881986,13.918068 18.367987,9.8190839 16.145984,6.992095 14.892732,5.401351 13.049698,4.5503616 11.172533,4.5060472z M11.006125,2.8610229E-06C14.271382,-0.0024776459 17.504767,1.4402094 19.681988,4.2071056 22.781992,8.1530905 22.763992,13.55407 19.971989,17.440055L28.537999,28.330013 23.873993,31.999999 15.333983,21.153041C10.864977,23.055034 5.5109701,21.833038 2.3609667,17.833054 -1.403038,13.050072 -0.57803726,6.1240983 4.2049685,2.3611126 6.2236433,0.77318096 8.6233702,0.0018119812 11.006125,2.8610229E-06z" />
  </g>
</svg>